<svg width="49" height="48" viewBox="0 0 49 48" fill="none" xmlns="http://www.w3.org/2000/svg">
<path fill-rule="evenodd" clip-rule="evenodd" d="M3.78668 17.6411H12.5508V44.0917H3.78668V17.6411Z" fill="#25292D"/>
<path fill-rule="evenodd" clip-rule="evenodd" d="M35.1679 16.7656C31.3251 16.7656 29.0334 18.1792 26.6065 21.2748V17.6408H17.8424V44.0913H26.6734V29.7554C26.6734 26.7266 28.2237 23.7652 31.7292 23.7652C35.2348 23.7652 37.3244 26.7266 37.3244 29.688V44.0913H46.1561V29.0828C46.1561 18.6501 39.0775 16.7656 35.1679 16.7656Z" fill="#25292D"/>
<path fill-rule="evenodd" clip-rule="evenodd" d="M8.20238 4.78564C5.30377 4.78564 3.01135 6.87188 3.01135 9.42979C3.01135 11.9877 5.30377 14.0739 8.20238 14.0739C11.101 14.0739 13.3934 11.9877 13.3934 9.42979C13.3934 6.87188 11.101 4.78564 8.20238 4.78564Z" fill="#25292D"/>
</svg>
