<svg width="39" height="39" viewBox="0 0 39 39" fill="none" xmlns="http://www.w3.org/2000/svg">
<path d="M27.7567 0.799805C33.5679 0.799805 38.2954 5.52752 38.2954 11.3383V28.4494C38.2954 34.2602 33.5679 38.9879 27.7567 38.9879H10.6456C4.83479 38.9879 0.1073 34.2604 0.1073 28.4494V11.3383C0.1073 5.52752 4.83479 0.799805 10.6456 0.799805H27.7567ZM19.2014 10.0542C13.7754 10.0542 9.36125 14.4684 9.36125 19.8943C9.36125 25.32 13.7754 29.734 19.2014 29.734C24.6273 29.734 29.0415 25.32 29.0415 19.8943C29.0415 14.4684 24.6273 10.0542 19.2014 10.0542ZM19.2014 13.4422C22.759 13.4422 25.6532 16.3364 25.6532 19.8941C25.6532 23.4515 22.7588 26.3455 19.2014 26.3455C15.6439 26.3455 12.7495 23.4515 12.7495 19.8941C12.7495 16.3364 15.6437 13.4422 19.2014 13.4422ZM29.4542 7.18121C28.8014 7.18121 28.1601 7.44549 27.6991 7.90855C27.2358 8.36935 26.9695 9.01085 26.9695 9.66591C26.9695 10.3189 27.236 10.9602 27.6991 11.4233C28.1599 11.8841 28.8014 12.1506 29.4542 12.1506C30.1092 12.1506 30.7485 11.8841 31.2115 11.4233C31.6746 10.9602 31.9389 10.3187 31.9389 9.66591C31.9389 9.01085 31.6746 8.36935 31.2115 7.90855C30.7507 7.44549 30.1092 7.18121 29.4542 7.18121Z" fill="#25292D"/>
</svg>
