<svg width="40" height="27" viewBox="0 0 40 27" fill="none" xmlns="http://www.w3.org/2000/svg">
<path d="M38.4879 4.96315C38.0184 2.98491 36.3501 1.52542 34.3419 1.30771C29.5862 0.792797 24.7727 0.79011 19.9814 0.792798C15.1894 0.79011 10.3751 0.792797 5.61945 1.30771C3.61235 1.52542 1.94532 2.98491 1.47581 4.96315C0.80757 7.78038 0.800049 10.8556 0.800049 13.7562C0.800049 16.6567 0.800049 19.7316 1.46829 22.5484C1.93701 24.5263 3.60444 25.9858 5.61272 26.2039C10.368 26.7192 15.1818 26.7219 19.9739 26.7192C24.7668 26.7219 29.5795 26.7192 34.3343 26.2039C36.3414 25.9862 38.01 24.5267 38.4796 22.5484C39.1482 19.7312 39.1506 16.6563 39.1506 13.7562C39.1506 10.8556 39.1561 7.78038 38.4879 4.96315ZM15.0263 19.5296C15.0263 15.415 15.0263 11.3433 15.0263 7.22822C19.0907 9.28518 23.1283 11.3283 27.2185 13.3979C23.1409 15.4491 19.1014 17.48 15.0263 19.5296Z" fill="#25292D"/>
</svg>
